<svg width="257" height="256" viewBox="0 0 257 256" fill="none" xmlns="http://www.w3.org/2000/svg">
<path d="M31.0105 44.6744C29.783 46.0916 28.5878 47.541 27.4249 49.0226C27.328 49.1515 27.4087 49.3286 27.5541 49.3447L40.0391 50.5848C40.2652 50.6009 40.3459 50.311 40.136 50.2144C36.9057 48.6683 33.95 46.7519 31.2528 44.6583C31.172 44.5939 31.0589 44.61 30.9782 44.6905L31.0105 44.6744Z" fill="#73AFFF"/>
<path d="M76.8156 50.3432C77.0255 50.3754 77.1386 50.0856 76.9286 49.9728C69.1114 45.8822 61.601 39.2793 54.4622 30.1802C53.38 28.7952 52.314 27.378 51.2965 25.9607C51.2319 25.8641 51.1027 25.848 51.0219 25.9124C46.7741 29.1173 42.7202 32.5798 38.9085 36.2838C38.8277 36.3644 38.8277 36.4932 38.9085 36.5737C43.4954 40.5999 48.4539 43.8369 53.3316 46.7519C53.3477 46.7519 53.38 46.768 53.3962 46.7841L76.7994 50.3271L76.8156 50.3432Z" fill="#73AFFF"/>
<path d="M94.7758 48.0725L97.1016 48.8616C97.1016 48.8616 97.1339 48.8616 97.15 48.8616L113.027 50.3915C113.237 50.4076 113.334 50.1178 113.14 50.0211C106.001 46.301 99.1366 40.4389 92.4177 32.3382C87.3139 26.1862 82.5008 18.8908 77.9946 10.468C77.9461 10.3714 77.8331 10.3392 77.7523 10.3875C72.2932 12.7227 67.044 15.4444 62.0048 18.4882C61.9079 18.5365 61.8756 18.6653 61.9402 18.762C71.308 33.997 82.3231 43.8369 94.7758 48.0725Z" fill="#73AFFF"/>
<path d="M7.88183 101.749C6.7997 99.5752 5.70141 97.4816 4.57082 95.4524C4.49006 95.2914 4.24779 95.3236 4.21549 95.5008C1.45362 105.937 0 116.904 0 128.209C0 129.627 0.0161513 131.028 0.0646052 132.429C0.791413 154.669 7.18733 175.46 17.8633 193.449C23.7586 203.37 30.9459 212.421 39.1992 220.376C39.3284 220.505 39.5545 220.376 39.5222 220.215C37.6648 206.961 35.5652 194.432 33.2232 182.659C26.6173 149.419 18.0895 122.202 7.88183 101.765V101.749Z" fill="#73AFFF"/>
<path d="M16.5874 65.1434C14.0193 69.6527 11.7258 74.3392 9.72308 79.1706C9.69078 79.235 9.70693 79.3156 9.75538 79.3639C28.8462 104.358 44.6422 144.99 56.788 200.407C59.6144 213.274 62.0856 226.287 64.266 239.138C64.266 239.203 64.3145 239.251 64.3629 239.267C69.3698 242.15 74.5705 244.694 79.9651 246.901C80.1104 246.949 80.2558 246.853 80.2396 246.691C75.5235 203.805 67.6416 159.581 54.123 122.251C44.2869 95.082 32.0119 76.2073 16.8943 65.0629C16.7973 64.9985 16.6681 65.0146 16.6035 65.1273L16.5874 65.1434Z" fill="#73AFFF"/>
<path d="M83.2761 103.231C71.2434 78.5264 56.7395 63.1303 40.1521 57.4454L33.5462 55.1907C33.5462 55.1907 33.5139 55.1907 33.4816 55.1907L25.083 54.9331C23.8393 54.9009 22.6441 55.4967 21.9496 56.5274C49.9721 71.6658 72.7293 113.763 89.7689 182.096C95.7449 206.059 100.38 230.764 103.966 253.923C103.966 254.003 104.047 254.067 104.127 254.084C108.763 254.969 113.495 255.613 118.292 256C118.421 256 118.518 255.903 118.502 255.791C116.015 230.909 112.752 207.911 108.747 186.943C102.173 152.576 93.5968 124.409 83.2922 103.247L83.2761 103.231Z" fill="#73AFFF"/>
<path d="M77.9138 57.4293L75.4265 56.4469C75.4265 56.4469 75.3942 56.4469 75.3781 56.4469L68.4007 55.6739H68.433L55.8189 54.1761C55.5928 54.1439 55.512 54.4499 55.722 54.5465C65.7196 59.0236 75.2812 67.2209 84.2775 79.0579C95.3895 93.6809 103.594 111.299 108.537 123.507C122.508 158.1 133.442 201.727 141.566 255.565C141.566 255.662 141.679 255.742 141.776 255.726C146.444 255.243 151.031 254.534 155.537 253.568C155.634 253.552 155.698 253.455 155.698 253.359C151.58 213.226 144.716 171.225 132.99 134.184C119.568 91.7967 101.559 66.6895 77.9461 57.4293H77.9138Z" fill="#73AFFF"/>
<path d="M130.89 48.153L131.132 48.2496C131.132 48.2496 131.165 48.2496 131.181 48.2496L150.611 50.4721C150.821 50.5043 150.918 50.1983 150.724 50.1017C132.295 40.5838 119.326 18.9391 112.494 4.94414C111.912 3.7685 111.347 2.56064 110.782 1.35279C110.749 1.27227 110.669 1.22396 110.572 1.24006C103.934 2.15803 97.4569 3.59134 91.1741 5.4917C91.061 5.52391 90.9964 5.65274 91.0448 5.76548C99.605 24.302 111.557 40.616 130.858 48.1369L130.89 48.153Z" fill="#73AFFF"/>
<path d="M157.346 101.878C145.459 77.9789 131.165 63.0337 114.852 57.4454L110.862 56.0765C110.862 56.0765 110.83 56.0765 110.814 56.0765L93.3868 54.8042C93.2899 54.8042 93.193 54.7881 93.0961 54.772C122.411 67.994 146.169 109.882 163.855 179.664C169.443 201.743 173.917 224.612 177.47 246.514C177.487 246.643 177.616 246.708 177.745 246.659C182.429 244.727 186.967 242.52 191.344 240.072C191.409 240.04 191.457 239.96 191.441 239.879C189.261 221.23 186.386 201.776 182.639 182.869C176.033 149.612 167.521 122.363 157.33 101.878H157.346Z" fill="#73AFFF"/>
<path d="M168.28 48.0725L172.027 49.3608C172.027 49.3608 172.06 49.3608 172.076 49.3608L188.211 50.6331C188.421 50.6492 188.502 50.3593 188.308 50.2627C181.298 46.6714 174.499 40.9703 167.747 33.079C160.657 24.7851 154.132 14.2687 148.188 1.57826C148.156 1.51384 148.107 1.48163 148.043 1.46553C141.679 0.499245 135.17 0 128.548 0C127.773 0 127.014 0 126.239 0.0161047C126.093 0.0161047 126.012 0.161047 126.061 0.289884C138.837 29.9547 154.083 43.1928 168.28 48.0564V48.0725Z" fill="#73AFFF"/>
<path d="M151.37 57.4132L148.931 56.4469C148.931 56.4469 148.899 56.4469 148.866 56.4469L132.457 55.0941C132.247 55.078 132.166 55.3679 132.36 55.4645C142.115 60.3281 151.435 68.767 160.221 80.7328C171.591 96.2255 179.861 114.681 184.787 127.436C195.35 154.75 204.249 187.877 211.291 225.965C211.324 226.11 211.501 226.174 211.614 226.077C216.072 222.309 220.271 218.251 224.18 213.918C224.212 213.87 224.245 213.822 224.228 213.757C219.755 184.06 213.423 154.331 204.298 127.678C191.215 89.4293 173.901 66.464 151.37 57.4293V57.4132Z" fill="#73AFFF"/>
<path d="M205.541 48.1208L212.68 50.617C212.68 50.617 212.729 50.617 212.745 50.617L225.747 50.7297C225.957 50.7297 226.021 50.456 225.844 50.3593C216.815 45.8661 208.255 38.1037 200.292 27.1525C198.144 24.1892 196.109 21.1132 194.219 18.005C194.203 17.9728 194.187 17.9567 194.155 17.9406C185.433 12.771 176.049 8.5999 166.165 5.58832C166.003 5.54001 165.858 5.70106 165.922 5.8621C176.631 28.457 189.955 42.6613 205.541 48.1208Z" fill="#73AFFF"/>
<path d="M188.356 57.4776L183.947 55.996C183.947 55.996 183.915 55.996 183.899 55.996L168.329 54.9009C168.119 54.9009 168.038 55.1746 168.232 55.2713C193.008 67.3498 210.354 100.058 221.111 127.758C228.395 146.52 234.711 167.408 240.25 191.05C240.299 191.227 240.525 191.259 240.606 191.098C245.419 182.579 249.295 173.447 252.073 163.865C252.073 163.833 252.073 163.801 252.073 163.768C245.629 136.713 237.747 114.375 228.589 97.3045C217.186 76.0463 203.652 62.6472 188.356 57.4937V57.4776Z" fill="#73AFFF"/>
<path d="M224.713 57.5098L219.593 55.9799C219.593 55.9799 219.561 55.9799 219.545 55.9799L205.945 54.9814C205.735 54.9814 205.654 55.2552 205.848 55.3518C213.988 59.4102 220.336 65.3689 224.988 70.2647C236.665 82.5526 247.244 100.219 256.628 123.072C256.709 123.281 257.016 123.201 256.999 122.991C256.337 106.516 252.558 90.8465 246.226 76.5455C242.205 67.4464 234.42 60.4892 224.874 57.5903C224.81 57.5742 224.761 57.5581 224.697 57.542L224.713 57.5098Z" fill="#73AFFF"/>
</svg>
